<?xml version="1.0" encoding="UTF-8"?>
<svg width="200" height="40" viewBox="0 0 200 40" fill="none" xmlns="http://www.w3.org/2000/svg">
  <path d="M15.4 31.2c-4.8 0-8.7-1.5-11.7-4.6-3-3-4.5-7-4.5-11.8 0-4.9 1.5-8.8 4.5-11.9C6.7 0 10.6-1.4 15.4-1.4c4.8 0 8.7 1.5 11.7 4.6 3 3 4.5 7 4.5 11.8 0 4.9-1.5 8.8-4.5 11.9-3 3-6.9 4.5-11.7 4.5zm0-4.8c3.2 0 5.8-1 7.8-3.1 2-2 3-4.8 3-8.3 0-3.5-1-6.2-3-8.3-2-2-4.6-3.1-7.8-3.1-3.2 0-5.8 1-7.8 3.1-2 2-3 4.8-3 8.3 0 3.5 1 6.2 3 8.3 2 2 4.6 3.1 7.8 3.1z" fill="#160F29"/>
  <path d="M45.8 31.2c-4.8 0-8.7-1.5-11.7-4.6-3-3-4.5-7-4.5-11.8 0-4.9 1.5-8.8 4.5-11.9 3-3 6.9-4.5 11.7-4.5 4.8 0 8.7 1.5 11.7 4.6 3 3 4.5 7 4.5 11.8 0 4.9-1.5 8.8-4.5 11.9-3 3-6.9 4.5-11.7 4.5zm0-4.8c3.2 0 5.8-1 7.8-3.1 2-2 3-4.8 3-8.3 0-3.5-1-6.2-3-8.3-2-2-4.6-3.1-7.8-3.1-3.2 0-5.8 1-7.8 3.1-2 2-3 4.8-3 8.3 0 3.5 1 6.2 3 8.3 2 2 4.6 3.1 7.8 3.1z" fill="#160F29"/>
  <path d="M200 30h-5.2l-9.8-13.4V30h-5.2V-1h5.2v12.4L194.8-1h5.2l-9.8 13.4L200 30z" fill="#160F29"/>
  <text x="65" y="25" font-family="Plus Jakarta Sans, sans-serif" font-size="24" font-weight="600" fill="#160F29">TRADER AI</text>
</svg>